<svg width="201" height="63" viewBox="0 0 201 63" fill="none" xmlns="http://www.w3.org/2000/svg">
<path fill-rule="evenodd" clip-rule="evenodd" d="M99.3728 10.145C101.27 8.24447 104.347 8.24447 106.245 10.145C108.142 12.0457 108.142 15.1273 106.245 17.0279L94.6755 28.6157C91.354 24.1569 91.7148 17.8156 95.758 13.7658L99.3728 10.145Z" fill="#4F9E91"/>
<path fill-rule="evenodd" clip-rule="evenodd" d="M115.911 36.289C117.809 38.1895 117.809 41.2712 115.911 43.1717C114.015 45.0724 110.938 45.0724 109.04 43.1717L97.4712 31.5841C101.923 28.2572 108.254 28.6184 112.297 32.6683L115.911 36.289Z" fill="#EBE1C5"/>
<path fill-rule="evenodd" clip-rule="evenodd" d="M89.8102 52.8548C87.9127 54.7555 84.8361 54.7555 82.9386 52.8548C81.041 50.9541 81.041 47.8726 82.9386 45.9719L94.5074 34.3843C97.829 38.8431 97.4683 45.1844 93.425 49.2341L89.8102 52.8548Z" fill="#EBCC6E"/>
<path fill-rule="evenodd" clip-rule="evenodd" d="M73.2713 26.7109C71.3737 24.8102 71.3737 21.7287 73.2713 19.828C75.169 17.9273 78.2455 17.9273 80.1431 19.828L91.7121 31.4158C87.2605 34.7427 80.9293 34.3813 76.8862 30.3316L73.2713 26.7109Z" fill="#ED834E"/>
<path fill-rule="evenodd" clip-rule="evenodd" d="M96.7875 51.4356C99.5855 48.3196 100.886 44.3324 100.689 40.4067L106.245 45.9718C106.259 45.9856 106.272 45.9994 106.286 46.0133V49.9864C106.286 52.6743 104.111 54.8533 101.427 54.8533C99.2477 54.8533 97.4033 53.4158 96.7875 51.4356Z" fill="#ED834E"/>
<path fill-rule="evenodd" clip-rule="evenodd" d="M74.6881 33.6992C77.7989 36.5019 81.7797 37.8045 85.6991 37.6069L80.1431 43.172C80.1292 43.1858 80.1154 43.1998 80.1017 43.2136H76.135C73.4515 43.2138 71.276 41.0346 71.276 38.3467C71.276 36.1636 72.7112 34.3161 74.6881 33.6992Z" fill="#4F9E91"/>
<path fill-rule="evenodd" clip-rule="evenodd" d="M114.495 29.3008C111.384 26.4981 107.403 25.1955 103.484 25.393L109.04 19.828C109.054 19.8142 109.068 19.8002 109.081 19.7863H113.048C115.732 19.7863 117.908 21.9654 117.908 24.6533C117.908 26.8365 116.472 28.6839 114.495 29.3008Z" fill="#EBCC6E"/>
<path fill-rule="evenodd" clip-rule="evenodd" d="M92.3957 11.5642C89.5975 14.6801 88.2972 18.6673 88.4944 22.5932L82.9384 17.0281C82.9245 17.0142 82.9107 17.0004 82.8967 16.9866V13.0134C82.8967 10.3255 85.0722 8.14642 87.7557 8.14642C89.9354 8.14642 91.7798 9.58406 92.3957 11.5642Z" fill="#EBE1C5"/>
<path fill-rule="evenodd" clip-rule="evenodd" d="M87.7561 4.18677C82.8892 4.18677 78.9437 8.13865 78.9437 13.0135V14.7302C76.0156 13.9639 72.7707 14.7298 70.4761 17.0281C67.0346 20.4751 67.0346 26.0639 70.4761 29.511L71.688 30.7248C69.0766 32.2568 67.3229 35.0966 67.3229 38.3467C67.3229 43.2216 71.2684 47.1734 76.1353 47.1734H77.8491C77.0841 50.1062 77.8487 53.3565 80.1433 55.6546C83.5847 59.1017 89.1645 59.1017 92.6059 55.6546L96.2207 52.034C99.4094 48.8401 100.899 44.5884 100.689 40.4066L106.245 45.9716C109.686 49.4187 115.266 49.4187 118.708 45.9716C122.149 42.5246 122.149 36.9358 118.708 33.4889L117.496 32.2752C120.107 30.7432 121.861 27.9034 121.861 24.6533C121.861 19.7784 117.915 15.8266 113.048 15.8266H111.334C112.1 12.8936 111.335 9.64339 109.04 7.34512C105.599 3.89806 100.019 3.89806 96.5777 7.34512L92.9628 10.9658C89.774 14.1598 88.2847 18.4113 88.4949 22.5932L82.9388 17.0281C82.9249 17.0142 82.911 17.0004 82.8971 16.9866V13.0135C82.8971 10.3256 85.0725 8.14659 87.7561 8.14659C89.9358 8.14659 91.7802 9.58409 92.396 11.5642C92.5786 11.361 92.7674 11.1614 92.9627 10.9658L95.3657 8.55897C93.8361 5.94337 91.0009 4.18677 87.7561 4.18677ZM109.082 19.7864C109.068 19.8002 109.054 19.8142 109.04 19.828L103.484 25.393C107.404 25.1955 111.384 26.4979 114.495 29.3007C116.472 28.6839 117.908 26.8363 117.908 24.6533C117.908 21.9654 115.732 19.7864 113.048 19.7864H109.082ZM80.1017 43.2136C80.1155 43.1996 80.1293 43.1857 80.1433 43.1718L85.6992 37.6067C81.7798 37.8044 77.7992 36.5018 74.6884 33.6992C72.7115 34.3161 71.2762 36.1635 71.2762 38.3467C71.2762 41.0346 73.4517 43.2136 76.1353 43.2136H80.1017ZM74.5369 33.5609C74.386 33.4214 74.2374 33.2782 74.091 33.1316V33.1317C74.2374 33.2784 74.386 33.4214 74.5369 33.5609ZM101.428 58.8132C98.1825 58.8132 95.3473 57.0565 93.8178 54.4409L96.2207 52.034C96.4161 51.8384 96.6049 51.6389 96.7874 51.4357C97.4033 53.4158 99.2477 54.8534 101.428 54.8534C104.111 54.8534 106.287 52.6744 106.287 49.9865V46.0134C107.425 47.1391 108.794 47.8912 110.24 48.2696V49.9865C110.24 54.8614 106.294 58.8132 101.428 58.8132ZM106.245 10.1451C104.347 8.24452 101.271 8.24452 99.3731 10.1451L95.7582 13.7658C91.7151 17.8156 91.3543 24.1569 94.6758 28.6157L106.245 17.0279C108.142 15.1273 108.142 12.0457 106.245 10.1451ZM115.912 43.1717C117.809 41.271 117.809 38.1895 115.912 36.2888L112.297 32.6681C108.254 28.6184 101.923 28.257 97.4712 31.5839L109.04 43.1717C110.938 45.0724 114.015 45.0724 115.912 43.1717ZM89.8104 52.8547C87.9128 54.7553 84.8363 54.7553 82.9387 52.8547C81.0412 50.954 81.0412 47.8725 82.9387 45.9718L94.5076 34.384C97.8292 38.8428 97.4684 45.1843 93.4252 49.2339L89.8104 52.8547ZM73.2715 19.828C71.3741 21.7287 71.3741 24.8102 73.2715 26.7109L76.8864 30.3316C80.9296 34.3813 87.2607 34.7427 91.7122 31.4158L80.1433 19.828C78.2457 17.9275 75.1691 17.9275 73.2715 19.828Z" fill="#3D3A2C"/>
<path d="M2.0957 22.036H6.41734V35.4868H13.8398V39.1307H2.0957V22.036Z" fill="#3D3A2C"/>
<path d="M21.6865 39.4976C20.2378 39.4976 18.9681 39.2367 17.8775 38.715C16.7869 38.1769 15.9405 37.4432 15.3382 36.514C14.7523 35.5683 14.4592 34.4841 14.4592 33.2613C14.4592 32.0385 14.7523 30.9625 15.3382 30.0332C15.9405 29.0875 16.7869 28.3538 17.8775 27.8322C18.9681 27.2941 20.2378 27.0251 21.6865 27.0251C23.1352 27.0251 24.4048 27.2941 25.4954 27.8322C26.586 28.3538 27.4243 29.0875 28.0102 30.0332C28.6125 30.9625 28.9136 32.0385 28.9136 33.2613C28.9136 34.4841 28.6125 35.5683 28.0102 36.514C27.4243 37.4432 26.586 38.1769 25.4954 38.715C24.4048 39.2367 23.1352 39.4976 21.6865 39.4976ZM21.6865 36.1471C22.5491 36.1471 23.2328 35.8944 23.7374 35.389C24.2583 34.8672 24.5187 34.1581 24.5187 33.2613C24.5187 32.3646 24.2583 31.6635 23.7374 31.1582C23.2328 30.6364 22.5491 30.3756 21.6865 30.3756C20.8237 30.3756 20.1319 30.6364 19.6111 31.1582C19.1064 31.6635 18.8542 32.3646 18.8542 33.2613C18.8542 34.1581 19.1064 34.8672 19.6111 35.389C20.1319 35.8944 20.8237 36.1471 21.6865 36.1471Z" fill="#3D3A2C"/>
<path d="M36.9857 44.7556C36.2044 44.7556 35.4149 44.6822 34.6173 44.5355C33.836 44.3887 33.1604 44.1931 32.5908 43.9485V40.9649C33.8766 41.5192 35.3416 41.7964 36.9857 41.7964C38.1739 41.7964 39.0285 41.5518 39.5493 41.0627C40.0866 40.5736 40.3551 39.8563 40.3551 38.9106V38.2014C39.8831 38.609 39.2971 38.9269 38.5971 39.1552C37.9134 39.3835 37.181 39.4976 36.3996 39.4976C35.1626 39.4976 34.072 39.2367 33.1279 38.715C32.1838 38.1932 31.4432 37.4595 30.9061 36.514C30.3851 35.5683 30.1248 34.4841 30.1248 33.2613C30.1248 32.0222 30.3851 30.9299 30.9061 29.9843C31.4269 29.0386 32.1594 28.313 33.1035 27.8077C34.0475 27.286 35.1301 27.0251 36.3508 27.0251C38.0275 27.0251 39.411 27.5387 40.5016 28.5658V27.3919H44.6524V38.3237C44.6524 40.3616 44.0256 41.9432 42.7723 43.0682C41.5353 44.1931 39.6064 44.7556 36.9857 44.7556ZM37.474 36.1716C38.1414 36.1716 38.7355 36.0004 39.2563 35.658C39.7773 35.3156 40.1434 34.8591 40.3551 34.2884V32.2342C40.1272 31.6635 39.7528 31.2151 39.232 30.889C38.711 30.5468 38.1251 30.3756 37.474 30.3756C36.595 30.3756 35.8869 30.6364 35.3498 31.1582C34.8126 31.6635 34.544 32.3564 34.544 33.2369C34.544 34.1335 34.8126 34.8509 35.3498 35.389C35.8869 35.9107 36.595 36.1716 37.474 36.1716Z" fill="#3D3A2C"/>
<path d="M52.9697 39.4976C51.521 39.4976 50.2514 39.2367 49.1608 38.715C48.0702 38.1769 47.2237 37.4432 46.6215 36.514C46.0355 35.5683 45.7424 34.4841 45.7424 33.2613C45.7424 32.0385 46.0355 30.9625 46.6215 30.0332C47.2237 29.0875 48.0702 28.3538 49.1608 27.8322C50.2514 27.2941 51.521 27.0251 52.9697 27.0251C54.4184 27.0251 55.688 27.2941 56.7786 27.8322C57.8692 28.3538 58.7075 29.0875 59.2935 30.0332C59.8957 30.9625 60.1969 32.0385 60.1969 33.2613C60.1969 34.4841 59.8957 35.5683 59.2935 36.514C58.7075 37.4432 57.8692 38.1769 56.7786 38.715C55.688 39.2367 54.4184 39.4976 52.9697 39.4976ZM52.9697 36.1471C53.8323 36.1471 54.516 35.8944 55.0207 35.389C55.5415 34.8672 55.802 34.1581 55.802 33.2613C55.802 32.3646 55.5415 31.6635 55.0207 31.1582C54.516 30.6364 53.8323 30.3756 52.9697 30.3756C52.107 30.3756 51.4151 30.6364 50.8943 31.1582C50.3896 31.6635 50.1374 32.3646 50.1374 33.2613C50.1374 34.1581 50.3896 34.8672 50.8943 35.389C51.4151 35.8944 52.107 36.1471 52.9697 36.1471Z" fill="#3D3A2C"/>
<path d="M129.121 22.036H133.443V39.1307H129.121V22.036Z" fill="#3D3A2C"/>
<path d="M135.631 27.3919H139.782V28.5658C140.872 27.5387 142.256 27.0251 143.932 27.0251C145.153 27.0251 146.236 27.286 147.18 27.8077C148.125 28.313 148.856 29.0386 149.377 29.9843C149.898 30.9136 150.159 31.9978 150.159 33.2369C150.159 34.4596 149.898 35.552 149.377 36.514C148.856 37.4595 148.125 38.1932 147.18 38.715C146.253 39.2367 145.17 39.4976 143.932 39.4976C143.152 39.4976 142.402 39.3753 141.687 39.1307C140.987 38.9025 140.401 38.5845 139.929 38.1769V44.4865H135.631V27.3919ZM142.81 36.1471C143.689 36.1471 144.397 35.8863 144.933 35.3645C145.471 34.8428 145.74 34.1335 145.74 33.2369C145.74 32.3401 145.471 31.6392 144.933 31.1336C144.397 30.612 143.689 30.3511 142.81 30.3511C142.159 30.3511 141.572 30.5223 141.051 30.8647C140.53 31.1908 140.157 31.6392 139.929 32.2097V34.2884C140.157 34.8591 140.53 35.3156 141.051 35.658C141.572 35.9841 142.159 36.1471 142.81 36.1471Z" fill="#3D3A2C"/>
<path d="M156.565 39.4976C155.622 39.4976 154.637 39.3998 153.612 39.2041C152.586 39.0248 151.771 38.7639 151.17 38.4215V35.2667C151.837 35.658 152.634 35.9841 153.563 36.245C154.506 36.4895 155.369 36.6118 156.151 36.6118C156.72 36.6118 157.135 36.571 157.395 36.4895C157.656 36.408 157.786 36.245 157.786 36.0004C157.786 35.8047 157.697 35.6498 157.518 35.5357C157.356 35.4053 157.045 35.2748 156.59 35.1444C156.151 34.9977 155.638 34.8428 155.052 34.6797C154.059 34.3862 153.278 34.0846 152.708 33.7749C152.138 33.4651 151.715 33.0738 151.438 32.601C151.162 32.1282 151.023 31.5331 151.023 30.8158C151.023 29.544 151.52 28.5984 152.512 27.9789C153.522 27.343 154.897 27.0251 156.639 27.0251C157.486 27.0251 158.373 27.1148 159.3 27.2941C160.245 27.4735 160.952 27.7099 161.425 28.0034V31.1093C160.937 30.7832 160.284 30.5141 159.471 30.3022C158.674 30.0902 157.924 29.9843 157.224 29.9843C156.672 29.9843 156.24 30.0413 155.931 30.1554C155.622 30.2533 155.467 30.4326 155.467 30.6935C155.467 30.9381 155.622 31.1256 155.931 31.2559C156.24 31.3863 156.794 31.5494 157.591 31.745C158.112 31.8755 158.332 31.9325 158.25 31.9162C159.292 32.1934 160.097 32.5032 160.667 32.8456C161.238 33.188 161.635 33.5956 161.864 34.0684C162.109 34.5248 162.23 35.1118 162.23 35.8292C162.23 36.9542 161.742 37.8508 160.766 38.5193C159.805 39.1715 158.404 39.4976 156.565 39.4976Z" fill="#3D3A2C"/>
<path d="M168.646 39.4976C167.035 39.4976 165.822 39.0492 165.009 38.1525C164.212 37.2557 163.812 36.0738 163.812 34.6064V27.3918H168.11V34.1172C168.11 35.4705 168.72 36.1471 169.941 36.1471C170.494 36.1471 170.999 36.0167 171.454 35.7558C171.91 35.4949 172.284 35.1118 172.577 34.6064V27.3918H176.875V39.1307H172.725V37.859C172.22 38.397 171.609 38.8046 170.892 39.0818C170.177 39.359 169.428 39.4976 168.646 39.4976Z" fill="#3D3A2C"/>
<path d="M179.075 27.3919H183.055V28.6636C183.543 28.142 184.105 27.7425 184.74 27.4653C185.374 27.1718 186.049 27.0251 186.766 27.0251C187.645 27.0251 188.345 27.1555 188.866 27.4164C189.404 27.6773 189.834 28.0686 190.16 28.5902C190.648 28.1012 191.243 27.7179 191.943 27.4409C192.643 27.1637 193.351 27.0251 194.066 27.0251C195.613 27.0251 196.712 27.4246 197.363 28.2235C198.014 29.006 198.339 30.1391 198.339 31.6227V39.1307H194.237V32.2342C194.237 31.582 194.115 31.1093 193.871 30.8158C193.627 30.5223 193.22 30.3756 192.651 30.3756C191.918 30.3756 191.323 30.6364 190.868 31.1582C190.884 31.4352 190.893 31.8592 190.893 32.4298V39.1307H186.791V32.063C186.791 31.4597 186.685 31.0276 186.473 30.7669C186.261 30.506 185.887 30.3756 185.351 30.3756C184.519 30.3756 183.804 30.8401 183.201 31.7695V39.1307H179.075V27.3919Z" fill="#3D3A2C"/>
</svg>
