<svg width="147" height="40" viewBox="0 0 147 40" fill="none" xmlns="http://www.w3.org/2000/svg">
<path fill-rule="evenodd" clip-rule="evenodd" d="M72.6756 4.40747C74.0634 3.01977 76.3134 3.01977 77.7012 4.40747C79.089 5.79527 79.089 8.0453 77.7012 9.4331L69.2403 17.894C66.8111 14.6384 67.075 10.0082 70.032 7.0512L72.6756 4.40747Z" fill="#4F9E91"/>
<path fill-rule="evenodd" clip-rule="evenodd" d="M84.771 23.4967C86.159 24.8844 86.159 27.1345 84.771 28.5222C83.384 29.91 81.1336 29.91 79.7458 28.5222L71.2849 20.0614C74.5405 17.6322 79.1707 17.896 82.1277 20.853L84.771 23.4967Z" fill="#EBE1C5"/>
<path fill-rule="evenodd" clip-rule="evenodd" d="M65.6821 35.5924C64.2944 36.9802 62.0443 36.9802 60.6566 35.5924C59.2688 34.2046 59.2688 31.9546 60.6566 30.5668L69.1174 22.106C71.5466 25.3616 71.2828 29.9918 68.3258 32.9487L65.6821 35.5924Z" fill="#EBCC6E"/>
<path fill-rule="evenodd" clip-rule="evenodd" d="M53.5865 16.5032C52.1987 15.1154 52.1987 12.8654 53.5865 11.4776C54.9743 10.0898 57.2243 10.0898 58.6121 11.4776L67.073 19.9385C63.8174 22.3677 59.1871 22.1038 56.2302 19.1469L53.5865 16.5032Z" fill="#ED834E"/>
<path fill-rule="evenodd" clip-rule="evenodd" d="M70.7849 34.5562C72.8312 32.281 73.7823 29.3697 73.638 26.5033L77.7014 30.5667C77.7115 30.5768 77.7217 30.5869 77.7319 30.597V33.498C77.7319 35.4606 76.1409 37.0516 74.1783 37.0516C72.5842 37.0516 71.2353 36.002 70.7849 34.5562Z" fill="#ED834E"/>
<path fill-rule="evenodd" clip-rule="evenodd" d="M54.6226 21.6058C56.8977 23.6522 59.809 24.6033 62.6754 24.459L58.6121 28.5224C58.6019 28.5325 58.5918 28.5427 58.5818 28.5528H55.6808C53.7182 28.5529 52.1272 26.9618 52.1272 24.9992C52.1272 23.4052 53.1768 22.0562 54.6226 21.6058Z" fill="#4F9E91"/>
<path fill-rule="evenodd" clip-rule="evenodd" d="M83.735 18.3942C81.4601 16.3478 78.5488 15.3967 75.6824 15.5409L79.7457 11.4776C79.7559 11.4675 79.7659 11.4573 79.776 11.4471H82.6771C84.64 11.4471 86.231 13.0382 86.231 15.0008C86.231 16.5949 85.181 17.9438 83.735 18.3942Z" fill="#EBCC6E"/>
<path fill-rule="evenodd" clip-rule="evenodd" d="M67.573 5.44362C65.5266 7.71874 64.5756 10.63 64.7198 13.4965L60.6565 9.43314C60.6463 9.42304 60.6362 9.41294 60.626 9.40284V6.50182C60.626 4.53922 62.217 2.94812 64.1796 2.94812C65.7737 2.94812 67.1226 3.99782 67.573 5.44362Z" fill="#EBE1C5"/>
<path fill-rule="evenodd" clip-rule="evenodd" d="M64.1798 0.0570068C60.6204 0.0570068 57.7349 2.94251 57.7349 6.50191V7.7554C55.5935 7.1959 53.2203 7.7551 51.5422 9.4332C49.0253 11.9501 49.0253 16.0308 51.5422 18.5477L52.4285 19.434C50.5187 20.5526 49.2361 22.6261 49.2361 24.9992C49.2361 28.5586 52.1216 31.4441 55.681 31.4441H56.9344C56.3749 33.5855 56.9341 35.9587 58.6122 37.6367C61.1291 40.1536 65.2098 40.1536 67.7267 37.6367L70.3703 34.9931C72.7024 32.661 73.7916 29.5566 73.6379 26.5032L77.7014 30.5666C80.2183 33.0835 84.2991 33.0835 86.8161 30.5666C89.3331 28.0497 89.3331 23.969 86.8161 21.4522L85.9301 20.566C87.8391 19.4474 89.1221 17.3739 89.1221 15.0008C89.1221 11.4414 86.2361 8.5559 82.6771 8.5559H81.4236C81.9832 6.41441 81.4239 4.04121 79.7458 2.36311C77.229 -0.153793 73.1483 -0.153793 70.6314 2.36311L67.9877 5.00681C65.6556 7.3389 64.5664 10.4432 64.7201 13.4966L60.6567 9.4332C60.6465 9.4231 60.6364 9.413 60.6262 9.4029V6.50191C60.6262 4.53931 62.2172 2.94831 64.1798 2.94831C65.7739 2.94831 67.1228 3.99791 67.5732 5.44371C67.7067 5.29531 67.8448 5.14961 67.9876 5.00681L69.745 3.24941C68.6264 1.33961 66.5529 0.0570068 64.1798 0.0570068ZM79.7761 11.4472C79.766 11.4573 79.756 11.4675 79.7458 11.4776L75.6825 15.5409C78.549 15.3967 81.4602 16.3477 83.7351 18.3942C85.1811 17.9438 86.2311 16.5948 86.2311 15.0008C86.2311 13.0382 84.6401 11.4472 82.6771 11.4472H79.7761ZM58.5818 28.5528C58.5919 28.5426 58.602 28.5324 58.6122 28.5223L62.6755 24.4589C59.8091 24.6032 56.8979 23.6521 54.6228 21.6058C53.177 22.0562 52.1273 23.4051 52.1273 24.9992C52.1273 26.9618 53.7184 28.5528 55.681 28.5528H58.5818ZM54.512 21.5048C54.4017 21.4029 54.293 21.2984 54.1859 21.1913V21.1914C54.293 21.2985 54.4017 21.4029 54.512 21.5048ZM74.1783 39.943C71.8051 39.943 69.7316 38.6603 68.613 36.7505L70.3703 34.9931C70.5132 34.8503 70.6513 34.7046 70.7848 34.5562C71.2352 36.002 72.5841 37.0517 74.1783 37.0517C76.1409 37.0517 77.7319 35.4607 77.7319 33.4981V30.5971C78.5647 31.419 79.5657 31.9682 80.6232 32.2445V33.4981C80.6232 37.0575 77.7377 39.943 74.1783 39.943ZM77.7014 4.40751C76.3136 3.01981 74.0636 3.01981 72.6758 4.40751L70.0321 7.0512C67.0752 10.0082 66.8113 14.6384 69.2405 17.894L77.7014 9.4331C79.0892 8.0453 79.0892 5.79531 77.7014 4.40751ZM84.7711 28.5222C86.1591 27.1344 86.1591 24.8844 84.7711 23.4966L82.1277 20.8529C79.1708 17.896 74.5405 17.6321 71.2849 20.0613L79.7458 28.5222C81.1336 29.91 83.3841 29.91 84.7711 28.5222ZM65.6822 35.5923C64.2944 36.9801 62.0444 36.9801 60.6566 35.5923C59.2689 34.2045 59.2689 31.9545 60.6566 30.5667L69.1175 22.1058C71.5467 25.3614 71.2828 29.9917 68.3259 32.9486L65.6822 35.5923ZM53.5866 11.4776C52.1989 12.8654 52.1989 15.1154 53.5866 16.5032L56.2303 19.1469C59.1873 22.1038 63.8175 22.3677 67.0731 19.9385L58.6122 11.4776C57.2244 10.0899 54.9744 10.0899 53.5866 11.4776Z" fill="white"/>
<path d="M1.53271 13.0898H4.69331V22.911H10.1217V25.5716H1.53271V13.0898Z" fill="white"/>
<path d="M15.8603 25.8394C14.8008 25.8394 13.8722 25.6489 13.0746 25.268C12.277 24.8751 11.658 24.3394 11.2175 23.6609C10.789 22.9704 10.5747 22.1788 10.5747 21.2859C10.5747 20.3931 10.789 19.6074 11.2175 18.9289C11.658 18.2384 12.277 17.7027 13.0746 17.3218C13.8722 16.9289 14.8008 16.7325 15.8603 16.7325C16.9198 16.7325 17.8483 16.9289 18.6459 17.3218C19.4435 17.7027 20.0566 18.2384 20.4851 18.9289C20.9256 19.6074 21.1458 20.3931 21.1458 21.2859C21.1458 22.1788 20.9256 22.9704 20.4851 23.6609C20.0566 24.3394 19.4435 24.8751 18.6459 25.268C17.8483 25.6489 16.9198 25.8394 15.8603 25.8394ZM15.8603 23.393C16.4912 23.393 16.9912 23.2085 17.3602 22.8395C17.7412 22.4585 17.9316 21.9407 17.9316 21.2859C17.9316 20.6312 17.7412 20.1193 17.3602 19.7503C16.9912 19.3693 16.4912 19.1789 15.8603 19.1789C15.2293 19.1789 14.7234 19.3693 14.3425 19.7503C13.9734 20.1193 13.7889 20.6312 13.7889 21.2859C13.7889 21.9407 13.9734 22.4585 14.3425 22.8395C14.7234 23.2085 15.2293 23.393 15.8603 23.393Z" fill="white"/>
<path d="M27.0492 29.6786C26.4778 29.6786 25.9004 29.625 25.3171 29.5179C24.7457 29.4107 24.2516 29.2679 23.835 29.0893V26.9108C24.7754 27.3155 25.8468 27.5179 27.0492 27.5179C27.9182 27.5179 28.5432 27.3393 28.9241 26.9822C29.317 26.6251 29.5134 26.1013 29.5134 25.4108V24.893C29.1682 25.1906 28.7396 25.4227 28.2277 25.5894C27.7277 25.7561 27.192 25.8394 26.6206 25.8394C25.7159 25.8394 24.9183 25.6489 24.2278 25.268C23.5374 24.887 22.9957 24.3513 22.6029 23.6609C22.2219 22.9704 22.0315 22.1788 22.0315 21.2859C22.0315 20.3812 22.2219 19.5836 22.6029 18.8932C22.9838 18.2027 23.5195 17.6729 24.21 17.3039C24.9004 16.923 25.6921 16.7325 26.5849 16.7325C27.8111 16.7325 28.8229 17.1075 29.6205 17.8575V17.0003H32.6562V24.9823C32.6562 26.4703 32.1978 27.6251 31.2812 28.4465C30.3765 29.2679 28.9658 29.6786 27.0492 29.6786ZM27.4063 23.4109C27.8944 23.4109 28.3289 23.2859 28.7098 23.0359C29.0908 22.7859 29.3586 22.4526 29.5134 22.0359V20.536C29.3467 20.1193 29.0729 19.7919 28.692 19.5538C28.311 19.3039 27.8825 19.1789 27.4063 19.1789C26.7635 19.1789 26.2456 19.3693 25.8528 19.7503C25.4599 20.1193 25.2635 20.6252 25.2635 21.2681C25.2635 21.9228 25.4599 22.4466 25.8528 22.8395C26.2456 23.2204 26.7635 23.4109 27.4063 23.4109Z" fill="white"/>
<path d="M38.739 25.8394C37.6795 25.8394 36.751 25.6489 35.9534 25.268C35.1558 24.8751 34.5367 24.3394 34.0963 23.6609C33.6677 22.9704 33.4534 22.1788 33.4534 21.2859C33.4534 20.3931 33.6677 19.6074 34.0963 18.9289C34.5367 18.2384 35.1558 17.7027 35.9534 17.3218C36.751 16.9289 37.6795 16.7325 38.739 16.7325C39.7985 16.7325 40.727 16.9289 41.5246 17.3218C42.3222 17.7027 42.9353 18.2384 43.3639 18.9289C43.8043 19.6074 44.0246 20.3931 44.0246 21.2859C44.0246 22.1788 43.8043 22.9704 43.3639 23.6609C42.9353 24.3394 42.3222 24.8751 41.5246 25.268C40.727 25.6489 39.7985 25.8394 38.739 25.8394ZM38.739 23.393C39.3699 23.393 39.8699 23.2085 40.239 22.8395C40.6199 22.4585 40.8104 21.9407 40.8104 21.2859C40.8104 20.6312 40.6199 20.1193 40.239 19.7503C39.8699 19.3693 39.3699 19.1789 38.739 19.1789C38.1081 19.1789 37.6021 19.3693 37.2212 19.7503C36.8521 20.1193 36.6676 20.6312 36.6676 21.2859C36.6676 21.9407 36.8521 22.4585 37.2212 22.8395C37.6021 23.2085 38.1081 23.393 38.739 23.393Z" fill="white"/>
<path d="M94.4319 13.0898H97.5929V25.5716H94.4319V13.0898Z" fill="white"/>
<path d="M99.1931 17.0003H102.229V17.8575C103.026 17.1075 104.038 16.7325 105.264 16.7325C106.157 16.7325 106.949 16.923 107.639 17.3039C108.33 17.6729 108.865 18.2027 109.246 18.8932C109.627 19.5717 109.818 20.3634 109.818 21.2681C109.818 22.1609 109.627 22.9585 109.246 23.6609C108.865 24.3513 108.33 24.887 107.639 25.268C106.961 25.6489 106.169 25.8394 105.264 25.8394C104.693 25.8394 104.145 25.7501 103.622 25.5715C103.11 25.4049 102.681 25.1727 102.336 24.8751V29.4821H99.1931V17.0003ZM104.443 23.393C105.086 23.393 105.604 23.2026 105.996 22.8216C106.389 22.4407 106.586 21.9228 106.586 21.2681C106.586 20.6133 106.389 20.1015 105.996 19.7324C105.604 19.3515 105.086 19.161 104.443 19.161C103.967 19.161 103.538 19.286 103.157 19.536C102.776 19.7741 102.503 20.1015 102.336 20.5181V22.0359C102.503 22.4526 102.776 22.7859 103.157 23.0359C103.538 23.274 103.967 23.393 104.443 23.393Z" fill="white"/>
<path d="M114.503 25.8394C113.813 25.8394 113.093 25.768 112.343 25.6251C111.593 25.4942 110.997 25.3037 110.557 25.0537V22.7502C111.045 23.0359 111.628 23.274 112.307 23.4645C112.997 23.643 113.628 23.7323 114.2 23.7323C114.616 23.7323 114.92 23.7025 115.11 23.643C115.301 23.5835 115.396 23.4645 115.396 23.2859C115.396 23.143 115.331 23.0299 115.2 22.9466C115.081 22.8514 114.854 22.7561 114.521 22.6609C114.2 22.5538 113.825 22.4407 113.396 22.3216C112.67 22.1073 112.099 21.8871 111.682 21.6609C111.265 21.4347 110.956 21.149 110.753 20.8038C110.551 20.4586 110.45 20.0241 110.45 19.5003C110.45 18.5717 110.813 17.8813 111.539 17.4289C112.277 16.9646 113.283 16.7325 114.557 16.7325C115.176 16.7325 115.825 16.798 116.503 16.9289C117.194 17.0599 117.711 17.2325 118.057 17.4468V19.7146C117.7 19.4765 117.223 19.28 116.628 19.1253C116.045 18.9705 115.497 18.8932 114.985 18.8932C114.581 18.8932 114.265 18.9348 114.039 19.0181C113.813 19.0896 113.7 19.2205 113.7 19.411C113.7 19.5896 113.813 19.7265 114.039 19.8217C114.265 19.9169 114.67 20.036 115.253 20.1788C115.634 20.2741 115.795 20.3157 115.735 20.3038C116.497 20.5062 117.086 20.7324 117.503 20.9824C117.92 21.2324 118.211 21.53 118.378 21.8752C118.557 22.2085 118.646 22.6371 118.646 23.1609C118.646 23.9823 118.289 24.637 117.575 25.1251C116.872 25.6013 115.848 25.8394 114.503 25.8394Z" fill="white"/>
<path d="M123.338 25.8395C122.16 25.8395 121.273 25.5121 120.678 24.8574C120.095 24.2026 119.803 23.3396 119.803 22.2682V17.0004H122.946V21.911C122.946 22.8991 123.392 23.3931 124.285 23.3931C124.69 23.3931 125.059 23.2979 125.392 23.1074C125.725 22.9169 125.999 22.6372 126.213 22.2682V17.0004H129.356V25.5716H126.321V24.6431C125.952 25.0359 125.505 25.3335 124.981 25.5359C124.458 25.7383 123.91 25.8395 123.338 25.8395Z" fill="white"/>
<path d="M130.965 17.0003H133.876V17.9289C134.233 17.548 134.644 17.2563 135.108 17.0539C135.572 16.8396 136.066 16.7325 136.59 16.7325C137.233 16.7325 137.745 16.8277 138.126 17.0182C138.519 17.2087 138.834 17.4944 139.072 17.8753C139.429 17.5182 139.864 17.2384 140.376 17.0361C140.888 16.8337 141.406 16.7325 141.929 16.7325C143.06 16.7325 143.864 17.0242 144.34 17.6075C144.816 18.1789 145.054 19.0062 145.054 20.0895V25.5715H142.054V20.536C142.054 20.0598 141.965 19.7146 141.786 19.5003C141.608 19.286 141.31 19.1789 140.894 19.1789C140.358 19.1789 139.923 19.3693 139.59 19.7503C139.602 19.9526 139.608 20.2622 139.608 20.6788V25.5715H136.608V20.411C136.608 19.9705 136.531 19.655 136.376 19.4646C136.221 19.2741 135.947 19.1789 135.555 19.1789C134.947 19.1789 134.424 19.5181 133.983 20.1967V25.5715H130.965V17.0003Z" fill="white"/>
</svg>
